<?xml version="1.0" encoding="utf-8"?>
<!-- Generator: Adobe Illustrator 24.2.1, SVG Export Plug-In . SVG Version: 6.00 Build 0)  -->
<svg version="1.1" xmlns="http://www.w3.org/2000/svg" xmlns:xlink="http://www.w3.org/1999/xlink" x="0px" y="0px"
	 viewBox="0 0 30 30" style="enable-background:new 0 0 30 30;" xml:space="preserve">
<style type="text/css">
	.st0{fill:#FFFFFF;}
</style>
<g id="Layer_1">
	<rect x="0.03" y="0.01" width="29.93" height="29.93"/>
</g>
<g id="Layer_2">
	<g>
		<path class="st0" d="M19.05,8.74h-8.1c-1.12,0-2.04,0.91-2.04,2.04v8.45c0,1.12,0.91,2.04,2.04,2.04h8.1
			c1.12,0,2.04-0.91,2.04-2.04v-8.45C21.08,9.65,20.17,8.74,19.05,8.74z M15.04,19.75c-2.19,0-3.96-1.81-3.96-4.05
			s1.77-4.05,3.96-4.05c2.19,0,3.96,1.81,3.96,4.05S17.23,19.75,15.04,19.75z M18.64,11.64c-0.52,0-0.94-0.4-0.94-0.9
			s0.42-0.9,0.94-0.9s0.94,0.4,0.94,0.9S19.16,11.64,18.64,11.64z"/>
	</g>
</g>
</svg>
